<?xml version="1.0" standalone="no"?>
<!DOCTYPE svg PUBLIC "-//W3C//DTD SVG 20010904//EN"
 "http://www.w3.org/TR/2001/REC-SVG-20010904/DTD/svg10.dtd">
<svg version="1.0" xmlns="http://www.w3.org/2000/svg"
 width="300.000000pt" height="300.000000pt" viewBox="0 0 300.000000 300.000000"
 preserveAspectRatio="xMidYMid meet">
<metadata>
Created by potrace 1.10, written by Peter Selinger 2001-2011
</metadata>
<g transform="translate(0.000000,300.000000) scale(0.100000,-0.100000)"
fill="#000000" stroke="none">
<path d="M2104 2670 c-12 -4 -31 -21 -43 -36 -20 -25 -21 -38 -21 -205 l0
-179 -394 0 -394 0 -31 -26 c-36 -30 -49 -81 -31 -124 25 -61 14 -60 526 -60
l466 0 34 34 34 34 0 103 0 104 247 -248 248 -247 -248 -247 -247 -248 0 98
c0 69 -5 107 -16 128 -30 59 -26 59 -679 59 l-595 0 0 179 c0 165 -2 180 -21
205 -24 31 -73 46 -114 34 -44 -12 -802 -771 -814 -816 -19 -67 -12 -77 396
-484 221 -220 401 -392 417 -398 41 -15 81 -4 111 32 25 29 25 32 25 209 l0
179 394 0 394 0 31 26 c36 30 49 81 31 124 -25 61 -14 60 -519 60 -310 0 -468
-4 -484 -11 -44 -20 -57 -58 -57 -166 l0 -98 -247 248 -248 247 248 247 247
248 0 -98 c0 -69 5 -107 16 -128 30 -59 26 -59 679 -59 l595 0 0 -179 c0 -165
2 -180 21 -205 24 -31 73 -46 114 -34 44 12 802 771 814 816 19 67 12 77 -396
484 -214 213 -401 392 -416 398 -33 12 -44 12 -73 0z m464 -412 c211 -211 390
-396 398 -411 14 -26 13 -31 -5 -60 -11 -18 -190 -202 -398 -409 -354 -353
-381 -378 -414 -378 -19 0 -45 7 -57 16 -21 15 -22 21 -22 193 0 168 -1 179
-21 197 -20 18 -49 19 -631 24 -711 6 -638 -10 -638 135 0 100 -12 132 -46
121 -26 -8 -504 -489 -504 -507 0 -7 115 -128 256 -269 l255 -255 20 24 c16
19 19 39 19 116 0 146 -42 135 505 135 442 0 453 0 479 -21 31 -25 34 -66 7
-100 l-19 -24 -393 -3 c-346 -2 -395 -5 -411 -19 -16 -14 -18 -36 -18 -193 0
-208 -4 -216 -95 -211 -22 1 -778 750 -801 794 -11 21 -12 32 -3 50 16 31 748
765 781 783 35 18 68 18 96 -2 21 -15 22 -20 22 -195 0 -166 1 -180 20 -199
20 -20 32 -20 622 -20 l601 1 24 -22 c21 -20 23 -31 23 -115 0 -76 3 -96 19
-115 l20 -24 250 251 c190 189 251 256 251 275 0 18 -61 85 -251 274 l-250
250 -20 -24 c-15 -19 -19 -39 -19 -111 0 -73 -3 -92 -21 -114 l-20 -26 -462 0
c-459 0 -461 0 -484 22 -30 28 -31 78 -2 104 20 18 44 19 413 22 383 2 391 3
409 23 15 18 17 44 17 195 0 167 1 173 22 188 12 9 38 16 57 16 33 0 61 -25
419 -382z"/>
</g>
</svg>
